<?xml version="1.0" encoding="UTF-8"?>
<svg xmlns="http://www.w3.org/2000/svg" xmlns:xlink="http://www.w3.org/1999/xlink" viewBox="0 0 342.54 183.12">
  <defs>
    <style>
      .cls-1 {
        opacity: .31;
      }

      .cls-1, .cls-2 {
        mix-blend-mode: multiply;
      }

      .cls-3 {
        isolation: isolate;
      }

      .cls-4 {
        fill: #fff;
      }

      .cls-5 {
        fill: #fe5000;
      }

      .cls-2 {
        fill: url(#linear-gradient);
        opacity: .22;
      }
    </style>
    <linearGradient id="linear-gradient" x1="266.31" y1="17.39" x2="287.49" y2="47.32" gradientUnits="userSpaceOnUse">
      <stop offset="0" stop-color="#000"/>
      <stop offset=".76" stop-color="#fff"/>
    </linearGradient>
  </defs>
  <g class="cls-3">
    <g id="Layer_2" data-name="Layer 2">
      <g id="Layer_1-2" data-name="Layer 1">
        <g>
          <path class="cls-1" d="M338.97,70.45c-1.03-5.34-6.17-8.92-11.49-8l-2.84.49-35.62-42.07c-2.26-2.67-5.8-3.98-9.28-3.43l-92.15,14.57c-1.2.19-2.34.57-3.38,1.12l-19.07,3.02c-3.06.48-5.64,2.19-7.26,4.5-.87-.33-1.77-.61-2.7-.86-4.2-1.1-8.89-1.26-13.95-.46-4.93.78-9.36,2.35-13.18,4.67-1.13.68-2.18,1.42-3.17,2.21-2.23-1.9-5.34-2.85-8.63-2.33l-11.06,1.75c-5.31.84-9.28,5.19-9.53,10.11l-.8-1.55c-1.98-3.83-6.4-5.92-11-5.19l-15.09,2.39c-4.68.74-8.54,4.2-9.57,8.6l-1.47,6.26c-.21-.27-.41-.55-.63-.81-2.94-3.55-6.85-6.05-11.64-7.43-4.36-1.25-9.29-1.46-14.64-.61l-20.01,3.17c-6.19.98-10.79,6.41-10.26,12.15l4.29,46.29c.11,1.2.43,2.32.93,3.33-1.22,2.01-1.84,4.34-1.62,6.71l.84,9.15c.55,5.98,6.15,9.92,12.49,8.78l3.76-.68,2.68,27.74c.59,6.09,6.23,10.06,12.59,8.85l11.88-2.26c4.85-.92,8.67-4.61,9.88-9,2.08,3.77,6.5,5.89,11.31,4.98l11.72-2.23c4.24-.8,7.65-3.77,9.17-7.48,2.29,2.98,6.22,4.56,10.42,3.76l11.5-2.18c1.33-.25,2.58-.73,3.71-1.37,1.23.2,2.54.18,3.86-.07l33.23-6.31c4.14-.79,7.41-3.75,8.76-7.43,2.27,3,6.15,4.59,10.25,3.81l11.12-2.11c2.82-.54,5.23-2.11,6.87-4.24,2.2,1.44,4.94,1.99,7.67,1.47l12.02-2.28c3.26-.62,6.07-2.7,7.66-5.59.37.14.74.27,1.11.4,5.26,1.76,10.9,2.08,16.77.97,5.82-1.11,10.97-3.47,15.31-7,2.81-2.29,5.14-5,6.97-8.09,2.7,2.22,5.73,3.91,9.07,5.03,5.17,1.74,10.69,2.07,16.41.98s10.67-3.39,14.86-6.87c.83-.69,1.62-1.42,2.36-2.18,2.27,2.65,5.83,4.05,9.49,3.35l10.33-1.96c5.47-1.04,9.04-6.38,8.01-11.91l-1.11-5.96,7.38-1.37c5.39-1,8.9-6.24,7.86-11.69l-1.57-8.17c-.28-1.46-.86-2.79-1.66-3.93,1.35-2.06,1.93-4.65,1.42-7.29l-1.59-8.24Z"/>
          <path class="cls-4" d="M330.13,55.36c-1.11-5.79-6.55-9.51-12.15-8.33l-2.98.63L277.69,3.5c-2.35-2.78-6.01-4.03-9.59-3.28l-92.55,19.38c-1.18.25-2.29.7-3.31,1.31l-18.61,3.9c-2.97.62-5.45,2.5-7,4.98-.84-.31-1.72-.58-2.62-.8-4.08-1-8.61-.99-13.47.03-4.73.99-8.96,2.78-12.58,5.32-1.07.75-2.07,1.55-3,2.4-2.15-1.9-5.13-2.76-8.25-2.11l-10.47,2.19c-5.01,1.05-8.7,5.66-8.87,10.73l-.77-1.57c-1.91-3.88-6.08-5.87-10.38-4.97l-14.04,2.94c-4.34.91-7.87,4.56-8.76,9.08l-1.27,6.42c-.19-.27-.39-.54-.6-.81-2.76-3.53-6.4-5.96-10.83-7.21-4.03-1.14-8.54-1.2-13.42-.18l-18.14,3.8C3.56,56.24-.51,61.84.05,67.59l4.53,46.38c.12,1.2.42,2.32.88,3.33-1.07,2.04-1.59,4.38-1.36,6.75l.89,9.16c.58,5.99,5.69,9.87,11.4,8.67l3.4-.72,2.82,27.84c.62,6.11,5.8,10.08,11.57,8.86l10.84-2.29c4.44-.94,7.91-4.68,8.96-9.13,1.97,3.81,6.08,5.94,10.51,5l10.86-2.3c3.94-.83,7.1-3.87,8.47-7.66,2.18,3.03,5.88,4.62,9.82,3.78l10.81-2.29c1.26-.27,2.43-.76,3.49-1.42,1.17.2,2.4.18,3.66-.09l31.7-6.71c3.98-.84,7.11-3.94,8.39-7.77,2.23,3.09,6.01,4.72,9.98,3.88l10.82-2.29c2.76-.58,5.1-2.25,6.69-4.48,2.17,1.48,4.86,2.04,7.55,1.47l11.85-2.51c3.23-.68,6-2.9,7.55-5.95.37.14.73.28,1.11.41,5.25,1.79,10.88,2.08,16.75.83,5.83-1.24,11-3.79,15.35-7.6,2.83-2.47,5.17-5.38,7-8.69,2.75,2.32,5.85,4.07,9.25,5.22,5.28,1.79,10.92,2.06,16.77.82,5.82-1.23,10.96-3.78,15.27-7.58.86-.75,1.67-1.55,2.43-2.38,2.37,2.82,6.07,4.26,9.87,3.46l10.76-2.28c5.71-1.21,9.44-7.05,8.33-13.02l-1.19-6.43,7.75-1.64c5.68-1.2,9.37-6.98,8.24-12.88l-1.69-8.85c-.3-1.58-.92-3.01-1.77-4.23,1.42-2.28,2.02-5.11,1.48-7.97l-1.71-8.93Z"/>
          <g>
            <polygon class="cls-5" points="177.5 30.3 223.9 87.59 251.5 81.77 245.46 74.84 242.73 58.42 251.3 56.62 261.04 28.7 279.74 50.63 270.69 52.54 273.5 68.58 279.81 75.8 318.13 67.72 270.33 10.84 177.5 30.3"/>
            <g>
              <path d="M24.27,93.93l5.76-1.21,9.95,14.33,11.69-2.46-11.31-15.82s.01,0,.02-.01c2.36-1.68,4.08-3.79,5.18-6.32,1.09-2.52,1.46-5.36,1.12-8.52-.35-3.13-1.3-5.69-2.85-7.69-1.55-2-3.61-3.36-6.17-4.09-2.56-.73-5.51-.74-8.85-.04l-18.2,3.81,4.66,46.35,10.67-2.25-1.67-16.08ZM27.49,71.36c1.65-.35,3.06-.4,4.23-.15,1.17.25,2.09.79,2.76,1.61.67.83,1.08,1.96,1.24,3.4s0,2.66-.48,3.71-1.24,1.92-2.3,2.61c-1.06.69-2.42,1.21-4.08,1.56l-5.49,1.15-1.32-12.75,5.44-1.14Z"/>
              <path d="M63.79,54.76l-9.65,49.31,11.83-2.49,1.79-10.54,14.91-3.14,4.23,9.27,11.94-2.51-20.97-42.86-14.08,2.95ZM69.28,82.11l.36-2.11c.55-3.54,1.02-7.29,1.41-11.24.22-2.24.45-4.53.68-6.87.79,2.11,1.57,4.17,2.35,6.2,1.38,3.58,2.76,6.95,4.16,10.1l.85,1.86-9.81,2.06Z"/>
              <polygon points="108.46 45.4 97.97 47.6 103.76 93.63 114.4 91.39 108.46 45.4"/>
              <path d="M153.46,77.1c1.12-2.4,1.47-5.05,1.06-7.96-.26-1.83-.8-3.43-1.61-4.78-.82-1.35-1.89-2.47-3.21-3.36-1.32-.88-2.88-1.55-4.68-2.01-1.8-.46-3.8-.69-6.01-.71l-3.98-.11c-1.36-.03-2.56-.16-3.61-.38-1.05-.22-1.89-.6-2.52-1.13-.62-.53-1-1.27-1.12-2.21-.12-.86.02-1.67.41-2.43.39-.76,1.03-1.43,1.94-2.01.9-.58,2.05-1.01,3.44-1.3,2.1-.44,3.8-.33,5.1.34,1.3.67,2.13,1.82,2.5,3.44l10.11-2.12c-.44-2.81-1.5-5.12-3.19-6.96-1.69-1.83-3.87-3.08-6.55-3.74-2.68-.66-5.73-.63-9.16.09-3.35.7-6.23,1.91-8.66,3.62-2.43,1.71-4.25,3.78-5.46,6.21-1.21,2.43-1.63,5.06-1.26,7.88.45,3.44,1.91,5.96,4.37,7.55,2.47,1.6,5.69,2.44,9.66,2.54l4.88.15c1.69.03,3.09.17,4.22.42,1.12.25,1.99.63,2.61,1.14.61.51.98,1.2,1.11,2.09.14.99-.03,1.92-.5,2.78s-1.2,1.62-2.21,2.25c-1,.64-2.24,1.11-3.7,1.42-1.62.34-3.07.39-4.35.13-1.28-.25-2.33-.81-3.16-1.68-.83-.87-1.39-2.04-1.69-3.5l-10.16,2.14c.52,3.54,1.71,6.34,3.57,8.38,1.85,2.04,4.24,3.36,7.17,3.94,2.92.58,6.25.48,9.99-.3,3.71-.78,6.81-2.01,9.29-3.69,2.48-1.68,4.28-3.72,5.39-6.12Z"/>
              <polygon points="191.76 65.89 171.38 70.18 169.92 60.17 188.66 56.23 187.35 47.58 168.65 51.51 167.28 42.09 187.53 37.84 186.2 29.1 155.53 35.53 162.07 81.36 193.11 74.82 191.76 65.89"/>
              <polygon points="15.74 131.48 29.44 128.59 33.46 167.24 44.27 164.96 40.13 126.34 53.82 123.45 52.81 114.33 14.82 122.33 15.74 131.48"/>
              <polygon points="89.23 125.65 71.14 129.47 69 110.91 58.32 113.17 63.68 160.85 74.51 158.56 72.21 138.68 90.34 134.85 92.74 154.7 103.52 152.42 97.63 104.88 86.99 107.12 89.23 125.65"/>
              <polygon points="110.65 150.91 142.26 144.22 141.01 134.97 120.26 139.35 118.92 128.97 138 124.95 136.8 115.98 117.77 119.99 116.51 110.23 137.12 105.88 135.9 96.82 104.67 103.4 110.65 150.91"/>
              <path d="M185.22,116.38c2.33-1.72,4.01-3.87,5.02-6.45,1.01-2.58,1.27-5.48.79-8.7-.48-3.19-1.55-5.81-3.22-7.86-1.66-2.04-3.82-3.44-6.46-4.19-2.64-.75-5.64-.76-9.02-.05l-18.39,3.87,6.63,47.33,10.78-2.28-2.35-16.42,5.82-1.23,10.73,14.65,11.81-2.5-12.17-16.17s.01,0,.02-.01ZM165.88,99.76l5.5-1.16c1.67-.35,3.11-.4,4.31-.15,1.2.26,2.16.81,2.87,1.65.72.85,1.18,2,1.4,3.48.21,1.45.1,2.71-.33,3.78s-1.18,1.96-2.24,2.66c-1.05.7-2.42,1.23-4.1,1.58l-5.55,1.17-1.86-13.02Z"/>
              <path d="M226.36,79.99c-3.52-1.17-7.28-1.34-11.29-.49s-7.51,2.54-10.45,5.07c-2.94,2.54-5.08,5.79-6.43,9.77-1.35,3.99-1.63,8.57-.85,13.76s2.4,9.36,4.86,12.59c2.46,3.24,5.47,5.46,9.02,6.67,3.56,1.21,7.38,1.38,11.47.52,4.07-.86,7.58-2.58,10.53-5.16,2.95-2.57,5.08-5.88,6.39-9.91,1.3-4.02,1.53-8.62.68-13.78-.85-5.17-2.5-9.34-4.97-12.52-2.46-3.17-5.45-5.34-8.97-6.52ZM229.39,109.46c-.51,2.33-1.46,4.21-2.86,5.65-1.4,1.44-3.2,2.39-5.39,2.85-2.21.47-4.19.31-5.95-.47-1.75-.78-3.22-2.15-4.41-4.11-1.18-1.96-2.01-4.49-2.49-7.59-.48-3.12-.46-5.83.05-8.14.52-2.31,1.47-4.18,2.87-5.61,1.4-1.43,3.19-2.38,5.38-2.84s4.13-.31,5.87.45c1.74.76,3.21,2.11,4.4,4.07,1.19,1.96,2.04,4.5,2.54,7.61s.5,5.81,0,8.14Z"/>
              <path d="M273.96,69.96c-3.54-1.17-7.3-1.33-11.31-.48s-7.49,2.53-10.39,5.06c-2.91,2.53-5.01,5.77-6.3,9.74-1.3,3.97-1.52,8.54-.67,13.71.85,5.14,2.52,9.32,5.03,12.54,2.51,3.22,5.55,5.44,9.12,6.64,3.58,1.21,7.41,1.38,11.48.51,4.06-.86,7.55-2.57,10.48-5.14,2.92-2.57,5.01-5.86,6.26-9.87,1.25-4.01,1.42-8.58.5-13.73-.92-5.15-2.63-9.3-5.14-12.47-2.5-3.16-5.53-5.32-9.06-6.49ZM277.38,99.32c-.48,2.32-1.41,4.2-2.79,5.63-1.39,1.43-3.17,2.38-5.36,2.84-2.21.47-4.19.31-5.96-.47-1.77-.78-3.25-2.14-4.46-4.1-1.21-1.95-2.07-4.47-2.59-7.57-.52-3.11-.54-5.81-.05-8.12.49-2.3,1.42-4.16,2.8-5.59,1.38-1.43,3.16-2.37,5.35-2.83,2.17-.46,4.13-.31,5.88.44,1.75.75,3.24,2.11,4.45,4.06,1.22,1.95,2.1,4.48,2.64,7.58s.57,5.79.1,8.11Z"/>
              <polygon points="322.06 66.89 320.38 57.95 289.99 64.36 298.4 111.19 309.13 108.92 306 91.75 323.99 87.95 322.32 79.1 304.38 82.89 302.22 71.07 322.06 66.89"/>
            </g>
          </g>
          <polygon class="cls-2" points="261.04 28.7 270.33 10.84 299.63 45.71 279.74 50.63 261.04 28.7"/>
        </g>
      </g>
    </g>
  </g>
</svg>