<?xml version="1.0" encoding="utf-8"?>
<!-- Generator: Adobe Illustrator 26.3.1, SVG Export Plug-In . SVG Version: 6.00 Build 0)  -->
<svg version="1.1" id="Layer_1" xmlns="http://www.w3.org/2000/svg" xmlns:xlink="http://www.w3.org/1999/xlink" x="0px" y="0px"
	 viewBox="0 0 1001.6 1001" style="enable-background:new 0 0 1001.6 1001;" xml:space="preserve">
<style type="text/css">
	.st0{fill:#DF694F;}
	.st1{fill:#FFD06A;}
	.st2{fill:#485B7F;}
	.st3{fill:#FFFFFF;}
	.st4{fill:#E3D4CF;}
	.st5{fill:#76A38D;}
	.st6{fill:#BEC2C4;}
	.st7{fill:#C1C3C9;}
	.st8{fill:#232C44;}
	.st9{fill:#F1F0F1;}
	.st10{opacity:0.72;fill:#FDDED3;}
	.st11{clip-path:url(#SVGID_00000034782371463333931580000001144502431713637277_);}
	.st12{fill:#393A3C;}
	.st13{fill:none;stroke:#FFFFFF;stroke-width:0.9234;stroke-miterlimit:10;}
	.st14{opacity:0.1;}
	.st15{fill:none;stroke:#010101;stroke-width:0.4323;stroke-miterlimit:10;}
	.st16{fill:none;stroke:#C3BFBE;stroke-width:0.4323;stroke-miterlimit:10;}
	.st17{fill:none;stroke:#010101;stroke-width:0.2997;stroke-miterlimit:10;}
	.st18{fill:none;stroke:#C3BFBE;stroke-width:0.2997;stroke-miterlimit:10;}
	.st19{fill:none;stroke:#010101;stroke-width:0.2309;stroke-miterlimit:10;}
	.st20{fill:none;stroke:#A09F9F;stroke-width:0.2309;stroke-miterlimit:10;}
	.st21{fill:#C8CBC3;}
	.st22{fill:#E2DDDB;}
	.st23{fill:#9CD4B8;}
	.st24{fill:none;stroke:#1EB090;stroke-miterlimit:10;}
	.st25{fill:#272626;}
	.st26{fill:#706F6F;}
	.st27{fill:#4D4C4C;}
	.st28{fill:#F26222;}
	.st29{fill:#E8E8E8;}
	.st30{fill:#E9E9EA;}
	.st31{fill:#F05323;}
	.st32{fill:none;stroke:#F05323;stroke-width:2;stroke-linecap:round;stroke-linejoin:round;stroke-miterlimit:10;}
	.st33{fill:#212C3A;}
	.st34{fill:none;stroke:#5C5C5C;stroke-width:1.1294;stroke-miterlimit:10;}
	.st35{fill:#986678;}
	.st36{fill:#029E49;}
	.st37{fill:none;stroke:#7C7D83;stroke-width:0.6009;}
	.st38{fill:none;stroke:#7C7D83;stroke-width:0.6009;stroke-linecap:round;stroke-linejoin:round;stroke-dasharray:0,1.1995;}
	.st39{fill:none;stroke:#7C7D83;stroke-width:0.6009;stroke-linecap:round;stroke-linejoin:round;}
	.st40{clip-path:url(#SVGID_00000047782153447253994320000007769407767105936263_);}
	.st41{fill:#7C7D83;}
	.st42{clip-path:url(#SVGID_00000067942634488909550790000013144269251991463572_);fill:#393A3C;}
	.st43{fill:none;stroke:#7C7D83;stroke-width:0.7832;}
	.st44{fill:none;stroke:#7C7D83;stroke-width:0.7832;stroke-linecap:round;stroke-linejoin:round;stroke-dasharray:0,1.5602;}
	.st45{fill:none;stroke:#7C7D83;stroke-width:0.7832;stroke-linecap:round;stroke-linejoin:round;}
	.st46{fill:none;stroke:#7C7D83;stroke-width:0.7832;stroke-linecap:round;stroke-linejoin:round;stroke-dasharray:0,1.5696;}
	.st47{clip-path:url(#SVGID_00000018221439196762530440000010610298567573946269_);}
	.st48{fill:#B3B4BB;}
	.st49{fill:#FBBE4A;}
	.st50{fill:#02964C;}
	.st51{fill:#325AA9;}
	.st52{fill:#8B1C41;}
	.st53{fill:#E71D2F;}
	.st54{fill:#02BCE2;}
	.st55{fill:#8FD0B3;}
	.st56{fill:#1EB090;}
	.st57{fill:none;stroke:#393A3C;stroke-width:2.6143;stroke-linecap:round;stroke-linejoin:round;stroke-miterlimit:10;}
	.st58{fill:none;stroke:#393A3C;stroke-width:2.7913;stroke-linecap:round;stroke-linejoin:round;stroke-miterlimit:10;}
	.st59{fill:#B2B4BB;}
	.st60{fill:#F37550;}
	.st61{fill:#7D98CC;}
	.st62{fill:#FDBE74;}
	.st63{fill:#C9CBCF;}
	.st64{fill:#4EBFA6;}
	.st65{opacity:0.5;fill:none;stroke:#FCDEB8;stroke-width:4;stroke-miterlimit:10;}
	.st66{fill:none;stroke:#FFFFFF;stroke-width:12;stroke-miterlimit:10;}
	.st67{opacity:0.5;fill:none;stroke:#A8DBD1;stroke-width:4;stroke-miterlimit:10;}
	.st68{fill:#434343;}
	.st69{fill:none;stroke:#B2B4BB;stroke-linecap:round;stroke-linejoin:round;stroke-miterlimit:10;}
	.st70{fill:#FBAE51;}
	.st71{fill:none;stroke:#B2B4BB;stroke-width:2;stroke-linecap:round;stroke-linejoin:round;stroke-miterlimit:10;}
	.st72{fill:#5D7EBF;}
	.st73{fill:#E55053;}
	.st74{fill:#616263;}
	.st75{fill:#88898A;}
	.st76{fill:#9B9C9D;}
	.st77{fill:#E1E1E3;}
	.st78{fill:#FFFFFF;stroke:#F26222;stroke-width:1.2793;stroke-miterlimit:10;}
	.st79{fill:none;stroke:#DDDDDD;stroke-width:2.1999;stroke-miterlimit:10;}
	.st80{fill:#FFFFFF;stroke:#F26222;stroke-width:1.1885;stroke-miterlimit:10;}
	.st81{fill:#F58764;}
	.st82{fill:#F8B9A7;}
	.st83{fill:#FDDED3;}
	.st84{fill:#35B777;}
	.st85{fill:#2072B9;}
	.st86{fill:#658DC3;}
	.st87{fill:#B2C6E1;}
	.st88{fill:#FFD182;}
	.st89{fill:#FEE3B8;}
	.st90{fill:#F05968;}
	.st91{fill:#F9C0C6;}
	.st92{fill:#56C7DF;}
	.st93{fill:#CDEBF2;}
	.st94{fill:#8F2345;}
	.st95{fill:#CCB2BB;}
	.st96{clip-path:url(#SVGID_00000013906189838618336680000012274535676624342168_);}
	.st97{fill:#D4D6DE;}
	.st98{fill:#B4B7C2;}
	.st99{fill:#D0C5C0;}
	.st100{clip-path:url(#SVGID_00000013906189838618336680000012274535676624342168_);fill:#E1E1E3;}
	.st101{fill:#F8A283;}
	.st102{fill:#515251;}
	.st103{fill:#9B9FAD;}
	.st104{fill:#F27D52;}
	.st105{fill:#7E3E55;}
	.st106{fill:#56689F;}
	.st107{fill:#2F1D18;}
	.st108{fill:#9A5641;}
	.st109{fill:#F2E9E1;}
	.st110{fill:#392D28;}
	.st111{fill:#483D39;}
	.st112{fill:#AF3025;}
	.st113{fill:#676170;}
	.st114{fill:#CC4027;}
	.st115{fill:none;stroke:#393A3C;stroke-width:1.1445;stroke-miterlimit:10;}
	.st116{fill:#E06948;}
	.st117{fill:#F5EEE9;}
	.st118{fill:#F7997C;}
	.st119{fill:#D74D27;}
	.st120{fill:#384B85;}
	.st121{fill:#3F70B7;}
	.st122{fill:none;stroke:#393A3C;stroke-width:0.9821;stroke-miterlimit:10;}
	.st123{fill:#DC8270;}
	.st124{fill:#F26B49;}
	.st125{fill:#D6D9E5;}
	.st126{clip-path:url(#SVGID_00000094590700163487153660000012167678919446605727_);}
	.st127{fill:none;stroke:#393A3C;stroke-width:1.1423;stroke-linecap:round;stroke-linejoin:round;stroke-miterlimit:10;}
	.st128{fill:none;stroke:#393A3C;stroke-width:1.2196;stroke-linecap:round;stroke-linejoin:round;stroke-miterlimit:10;}
	.st129{fill:#FDBC4D;}
	.st130{fill:#00A656;}
	.st131{opacity:0.5;fill:none;stroke:#FCDEB8;stroke-width:1.7478;stroke-miterlimit:10;}
	.st132{fill:none;stroke:#FFFFFF;stroke-width:5.2433;stroke-miterlimit:10;}
	.st133{opacity:0.5;fill:none;stroke:#A8DBD1;stroke-width:1.7478;stroke-miterlimit:10;}
	.st134{fill:none;stroke:#B2B4BB;stroke-width:0.4369;stroke-linecap:round;stroke-linejoin:round;stroke-miterlimit:10;}
	.st135{fill:none;stroke:#B2B4BB;stroke-width:0.8739;stroke-linecap:round;stroke-linejoin:round;stroke-miterlimit:10;}
	.st136{opacity:0.63;fill:#515251;}
	.st137{opacity:0.98;fill:#FFFFFF;}
	.st138{clip-path:url(#SVGID_00000057108407846185962890000014235610148581569471_);}
	.st139{fill:#CA522F;}
	.st140{fill:none;stroke:#F05525;stroke-width:3.501;stroke-linecap:round;stroke-linejoin:round;}
	.st141{fill:none;stroke:#F05525;stroke-width:3.5624;stroke-linecap:round;stroke-linejoin:round;}
	.st142{fill:#D9DBE6;}
	.st143{fill:#371510;}
	.st144{fill:#242C57;}
	.st145{fill:#F1F5FB;}
	.st146{fill:#C6D1E5;}
	.st147{fill:#C5D2EC;}
	.st148{fill:#394176;}
	.st149{fill:none;stroke:#FFFFFF;stroke-width:3.2833;stroke-linecap:round;stroke-linejoin:round;stroke-miterlimit:10;}
	.st150{fill:none;stroke:#5C5C5C;stroke-width:0.9802;stroke-miterlimit:10;}
	.st151{fill:none;stroke:#000000;stroke-width:2;stroke-miterlimit:10;}
	.st152{fill:none;stroke:#ED2E41;stroke-miterlimit:10;}
	.st153{fill:none;stroke:#7E3E55;stroke-miterlimit:10;}
	.st154{fill:none;stroke:#2072B9;stroke-miterlimit:10;}
	.st155{fill:#F8A68B;}
	.st156{fill:#6C3A3A;}
	.st157{fill:#522929;}
	.st158{fill:#403630;}
	.st159{fill:#F1835E;}
	.st160{fill:#F5E9E3;}
	.st161{fill:#FFDA8B;}
	.st162{fill:#EDC75E;}
	.st163{fill:#578D76;}
	.st164{fill:#C04D34;}
	.st165{fill:#EFB63C;}
	.st166{fill:#8C979E;}
	.st167{fill:#E74461;}
</style>
<g>
	<polygon class="st31" points="611,300.9 553.2,388.8 599.8,388.8 614,388.8 660.6,388.8 718.4,300.9 	"/>
	<polygon class="st31" points="531.5,200.5 465.3,300.9 611,300.9 677.1,200.5 	"/>
	<polygon class="st12" points="440.1,339.1 382.3,426.9 489.7,426.9 547.5,339.1 	"/>
	<polygon class="st12" points="489.7,426.9 423.6,527.3 569.2,527.3 635.4,426.9 	"/>
	<g>
		<path class="st12" d="M380.5,668.6c0,19.5-12.4,29.2-32.5,29.2c-20.3,0-32.5-9.7-32.5-29.2v-75.9h-27.7v79.4
			c0,33.4,24.6,50.9,60.2,50.9c35.4,0,60.2-17.5,60.2-50.9v-79.4h-27.7V668.6z"/>
		<path class="st12" d="M508.4,592.7h-73.6v130.5h28.3v-44h45.3c32.1,0,50.2-17.5,50.2-43.1C558.5,610.6,540.6,592.7,508.4,592.7
			 M507.5,654.6h-44.4v-36.9h44.4c14,0,22.7,7.3,22.7,18.3C530.2,647.5,521.2,654.6,507.5,654.6"/>
		<polygon class="st12" points="606.1,643.7 606.1,617.5 687.4,617.5 687.4,592.7 577.8,592.7 577.8,723.1 688.3,723.1 688.3,699.1 
			688.3,697.6 628.7,697.6 606.1,697.6 606.1,669.2 675.2,669.2 675.2,643.7 		"/>
		<path class="st12" d="M790.4,675.2L790.4,675.2l2.2,0c31.5,0,48.1-17.1,48.1-41c0-25.3-16.9-41.5-49-41.5h-77.9v26.6v79.8v24h28.3
			v-31.6v-22.8l9.5,8.6l50.9,45.8h38.5l-53.1-47.9H790.4z M742.1,653.8v-34.5v-1.6h46.4c14.3,0,23.8,7.1,23.8,17.9
			c0,11.4-9.7,18.3-23.8,18.3h-21.2H742.1z"/>
		<polygon class="st12" points="185,697.7 255,592.7 151.3,592.7 134.9,617.5 204.1,617.4 134.9,723 258.4,723.2 275.3,697.5 		"/>
		<polygon class="st12" points="879.4,592.7 879.4,595.8 870.6,595.8 870.6,618.8 867,618.8 867,595.8 858.2,595.8 858.2,592.7 		
			"/>
		<path class="st12" d="M883.8,592.7h5.1l7.5,22.1l7.5-22.1h5v26.1h-3.4v-15.4c0-0.5,0-1.4,0-2.7c0-1.2,0-2.6,0-4l-7.5,22.1h-3.5
			l-7.5-22.1v0.8c0,0.6,0,1.6,0.1,2.9c0,1.3,0.1,2.3,0.1,2.9v15.4h-3.4V592.7z"/>
	</g>
</g>
</svg>
