<?xml version="1.0" encoding="utf-8"?>
<!-- Generator: Adobe Illustrator 26.3.1, SVG Export Plug-In . SVG Version: 6.00 Build 0)  -->
<svg version="1.1" id="Layer_1" xmlns="http://www.w3.org/2000/svg" xmlns:xlink="http://www.w3.org/1999/xlink" x="0px" y="0px"
	 viewBox="0 0 1001.6 1001" style="enable-background:new 0 0 1001.6 1001;" xml:space="preserve">
<style type="text/css">
	.st0{fill:#393A3C;}
</style>
<g>
	<polygon class="st0" points="611,300.9 553.2,388.8 599.8,388.8 614,388.8 660.6,388.8 718.4,300.9 	"/>
	<polygon class="st0" points="531.5,200.5 465.3,300.9 611,300.9 677.1,200.5 	"/>
	<polygon class="st0" points="440.1,339.1 382.3,426.9 489.7,426.9 547.5,339.1 	"/>
	<polygon class="st0" points="489.7,426.9 423.6,527.3 569.2,527.3 635.4,426.9 	"/>
	<g>
		<path class="st0" d="M380.5,668.6c0,19.5-12.4,29.2-32.5,29.2c-20.3,0-32.5-9.7-32.5-29.2v-75.9h-27.7v79.4
			c0,33.4,24.6,50.9,60.2,50.9c35.4,0,60.2-17.5,60.2-50.9v-79.4h-27.7V668.6z"/>
		<path class="st0" d="M508.4,592.7h-73.6v130.5h28.3v-44h45.3c32.1,0,50.2-17.5,50.2-43.1C558.5,610.6,540.6,592.7,508.4,592.7
			 M507.5,654.6h-44.4v-36.9h44.4c14,0,22.7,7.3,22.7,18.3C530.2,647.5,521.2,654.6,507.5,654.6"/>
		<polygon class="st0" points="606.1,643.7 606.1,617.5 687.4,617.5 687.4,592.7 577.8,592.7 577.8,723.1 688.3,723.1 688.3,699.1 
			688.3,697.6 628.7,697.6 606.1,697.6 606.1,669.2 675.2,669.2 675.2,643.7 		"/>
		<path class="st0" d="M790.4,675.2L790.4,675.2h2.2c31.5,0,48.1-17.1,48.1-41c0-25.3-16.9-41.5-49-41.5h-77.9v26.6v79.8v24h28.3
			v-31.6v-22.8l9.5,8.6l50.9,45.8H841l-53.1-47.9L790.4,675.2L790.4,675.2z M742.1,653.8v-34.5v-1.6h46.4c14.3,0,23.8,7.1,23.8,17.9
			c0,11.4-9.7,18.3-23.8,18.3h-21.2h-25.2V653.8z"/>
		<polygon class="st0" points="185,697.7 255,592.7 151.3,592.7 134.9,617.5 204.1,617.4 134.9,723 258.4,723.2 275.3,697.5 		"/>
		<polygon class="st0" points="879.4,592.7 879.4,595.8 870.6,595.8 870.6,618.8 867,618.8 867,595.8 858.2,595.8 858.2,592.7 		"/>
		<path class="st0" d="M883.8,592.7h5.1l7.5,22.1l7.5-22.1h5v26.1h-3.4v-15.4c0-0.5,0-1.4,0-2.7c0-1.2,0-2.6,0-4l-7.5,22.1h-3.5
			l-7.5-22.1v0.8c0,0.6,0,1.6,0.1,2.9c0,1.3,0.1,2.3,0.1,2.9v15.4h-3.4L883.8,592.7L883.8,592.7z"/>
	</g>
</g>
</svg>
